# xmcd CD database file
#
# Track frame offsets:
#	150
#	22729
#	62643
#	87991
#	137521
#	161779
#	189916
#	233065
#	263154
#
# Disc length: 3669 seconds
#
# Revision: 0
# Processed by: cddbd v1.5.1PL2 Copyright (c) Steve Scherf et al.
# Submitted via: CDex 1.60beta1-cs1
#
DISCID=690e5309
DTITLE=Jean-Marc Staehle - the Call of the Angels
DYEAR=2001
DGENRE=New Age
TTITLE0=The Call of the Angels
TTITLE1=In the heart of cosmos
TTITLE2=Crystal Resonance
TTITLE3=The Hermit
TTITLE4=Blue planet
TTITLE5=Silence
TTITLE6=Celestial garden
TTITLE7=Star songs
TTITLE8=The Take off of the Angels
EXTD=YEAR: 2001
EXTT0=
EXTT1=
EXTT2=
EXTT3=
EXTT4=
EXTT5=
EXTT6=
EXTT7=
EXTT8=
PLAYORDER=
